<?xml version="1.0" standalone="no"?>
<!DOCTYPE svg PUBLIC "-//W3C//DTD SVG 20010904//EN"
 "http://www.w3.org/TR/2001/REC-SVG-20010904/DTD/svg10.dtd">
<svg version="1.0" xmlns="http://www.w3.org/2000/svg"
 width="300.000000pt" height="300.000000pt" viewBox="0 0 300.000000 300.000000"
 preserveAspectRatio="xMidYMid meet">
<metadata>
Created by potrace 1.11, written by Peter Selinger 2001-2013
</metadata>
<g transform="translate(0.000000,300.000000) scale(0.100000,-0.100000)"
fill="#000000" stroke="none">
<path d="M1226 2883 c-4 -4 -28 -7 -55 -8 -57 -1 -94 -23 -116 -65 -14 -26
-16 -89 -16 -439 l0 -409 -409 -1 c-352 0 -413 -2 -439 -16 -45 -23 -65 -60
-66 -119 0 -28 -4 -57 -8 -63 -5 -7 -4 -13 0 -13 5 0 9 -31 8 -70 0 -38 -4
-70 -8 -70 -5 0 -5 -6 0 -12 10 -17 11 -138 1 -144 -5 -3 -5 -11 -1 -17 10
-17 11 -67 0 -67 -4 0 -5 -6 0 -12 11 -18 12 -59 1 -80 -4 -9 -4 -19 1 -22 4
-3 7 -29 6 -58 -4 -72 30 -148 65 -148 6 0 9 -4 6 -8 -2 -4 22 -7 54 -7 33 1
57 -2 54 -7 -7 -11 3 -10 29 3 22 10 22 10 0 -10 -13 -10 -23 -23 -23 -27 0
-4 5 -3 12 4 16 16 31 15 21 -1 -12 -19 -14 -47 -4 -47 6 0 8 9 6 20 -2 11 1
22 6 25 5 4 7 10 4 15 -3 4 1 13 9 19 11 9 13 6 10 -19 -2 -16 1 -30 6 -30 5
0 7 9 5 19 -2 11 4 26 13 33 15 12 16 11 3 -4 -9 -13 -10 -18 -2 -18 7 0 9 -4
6 -10 -3 -5 -1 -10 5 -10 7 0 10 7 6 15 -4 12 1 14 24 10 20 -3 29 -1 28 6 -4
14 30 21 38 8 3 -5 10 -9 15 -9 6 0 8 4 5 8 -2 4 10 7 27 7 27 0 32 -4 34 -25
1 -21 -1 -22 -10 -9 -7 9 -20 16 -30 16 -12 0 -14 -4 -8 -10 7 -7 7 -16 1 -28
-7 -12 -6 -20 2 -25 7 -4 10 -4 6 1 -4 4 -3 16 3 27 8 15 14 17 24 8 14 -12
31 3 21 19 -3 5 1 14 9 21 13 11 14 10 10 -2 -3 -8 1 -21 10 -28 19 -16 34 -4
15 13 -10 10 -11 9 -5 -2 5 -10 4 -12 -4 -7 -6 4 -9 12 -5 17 3 5 10 7 15 4 5
-4 9 -1 9 5 0 6 5 8 10 5 6 -4 8 -15 5 -26 -4 -11 -2 -19 5 -19 6 0 8 5 5 10
-7 11 23 9 42 -3 6 -4 14 -3 18 3 4 6 17 4 36 -6 17 -8 33 -13 37 -10 3 3 0 6
-6 6 -7 0 -12 5 -12 11 0 5 5 7 10 4 6 -3 10 -1 10 4 0 14 -17 14 -25 1 -4 -6
-13 -7 -23 -1 -9 4 -25 7 -35 6 -15 -3 -16 -1 -6 11 8 10 15 12 23 4 12 -12
29 -14 22 -2 -2 4 10 7 28 7 30 0 33 -2 30 -30 -1 -16 0 -24 3 -17 2 6 10 9
16 5 8 -4 8 -1 -1 9 -10 12 -9 18 3 28 13 11 15 10 10 -1 -8 -22 11 -45 27
-32 10 8 18 8 32 -3 11 -8 25 -14 30 -14 8 0 8 3 0 8 -6 4 -14 16 -18 27 -4
12 -10 15 -14 9 -4 -6 -15 -10 -25 -8 -10 1 -14 -2 -11 -8 4 -7 2 -8 -5 -4 -6
4 -9 12 -5 17 3 5 10 7 15 4 5 -4 9 -2 9 2 0 5 13 9 29 8 16 0 27 -5 24 -11
-2 -5 5 -18 16 -28 11 -10 18 -23 14 -29 -3 -6 -1 -7 6 -3 8 5 9 12 2 19 -5 7
-11 17 -13 22 -1 6 -7 9 -12 7 -5 -2 -3 4 4 13 9 11 16 13 24 5 13 -13 29 -13
21 0 -3 6 1 7 10 3 13 -5 14 -7 3 -14 -10 -7 -9 -9 3 -9 15 0 17 -35 17 -393
1 -394 5 -441 37 -453 8 -4 15 -10 15 -16 0 -17 28 -39 32 -26 3 7 10 8 17 3
10 -6 8 -11 -10 -21 -30 -16 -19 -18 16 -2 14 6 25 16 25 22 0 6 5 3 11 -7 5
-9 15 -17 20 -17 6 0 7 5 3 12 -4 6 -3 8 4 4 5 -3 12 -3 15 1 2 5 2 2 1 -5 -2
-6 1 -12 7 -12 6 0 8 -4 5 -9 -4 -5 -3 -17 0 -26 6 -15 9 -14 20 6 14 28 25
28 35 2 6 -14 8 -15 8 -2 1 16 30 23 32 7 1 -4 2 -12 3 -17 0 -5 5 -13 10 -18
5 -5 6 -3 2 5 -4 6 -3 12 3 12 5 0 17 3 27 7 10 4 15 2 11 -4 -3 -5 0 -10 8
-10 8 0 11 5 7 11 -4 6 -7 14 -7 18 0 16 -15 19 -21 4 -3 -9 -13 -16 -21 -16
-9 0 -13 6 -10 14 4 10 0 14 -13 11 -10 -2 -21 3 -24 11 -3 9 -1 12 5 9 5 -4
17 -1 26 7 10 8 14 8 10 1 -4 -6 -3 -14 3 -18 6 -4 7 -11 4 -17 -5 -7 -2 -8 5
-4 7 5 10 14 7 22 -3 8 0 11 8 8 8 -3 17 0 21 5 11 19 24 2 19 -24 -2 -14 0
-25 6 -25 6 0 8 -6 4 -12 -6 -10 -5 -10 8 -1 8 7 19 9 24 5 4 -4 2 1 -5 11
-12 15 -10 17 25 17 26 0 34 3 25 9 -9 6 -10 11 -2 15 6 4 11 2 11 -3 0 -6 5
-11 11 -11 5 0 7 4 4 10 -4 6 1 7 11 3 13 -5 15 -3 9 7 -5 9 -4 11 3 6 8 -5 9
-13 2 -25 -5 -10 -6 -21 -3 -25 3 -3 1 -6 -6 -6 -8 0 -11 7 -7 15 4 13 2 14
-14 5 -11 -6 -20 -16 -19 -23 0 -9 2 -8 6 1 3 9 9 10 17 3 6 -5 21 -8 31 -6
11 2 23 4 28 4 4 1 7 5 7 10 0 6 -10 8 -22 6 -20 -4 -21 -4 -5 12 20 20 84 26
84 7 0 -8 -11 -11 -31 -9 -17 2 -25 1 -18 -2 6 -2 10 -9 6 -14 -3 -5 -1 -9 5
-9 5 0 13 5 16 10 4 6 10 8 15 5 12 -7 31 30 22 41 -4 5 1 2 10 -5 9 -7 22
-10 29 -6 8 6 8 2 0 -13 -8 -15 -7 -23 3 -31 18 -15 29 -1 13 17 -10 13 -9 15
7 9 14 -5 17 -3 13 8 -4 8 -1 17 5 21 7 5 8 2 3 -6 -6 -10 -2 -12 18 -8 18 3
24 1 20 -8 -2 -7 -11 -10 -18 -8 -20 8 -28 -14 -11 -31 13 -13 15 -13 21 5 4
11 11 18 16 14 5 -3 6 -10 3 -16 -4 -7 -2 -8 5 -4 9 6 9 11 -1 24 -11 14 -10
15 6 9 14 -5 17 -3 13 8 -4 8 -1 17 5 21 6 4 8 3 5 -3 -4 -7 8 -11 33 -11 23
-1 38 3 35 9 -4 5 0 10 7 11 7 0 18 2 23 3 6 2 15 3 20 4 6 1 3 6 -5 11 -11 7
-11 10 -2 10 7 0 11 4 8 9 -3 5 1 14 8 20 9 8 16 8 20 2 4 -6 13 -8 22 -4 11
4 12 9 3 19 -9 11 -8 18 1 29 7 9 11 18 8 20 -8 8 -38 -6 -38 -17 0 -5 6 -6
13 -2 8 5 8 2 -2 -9 -7 -9 -14 -17 -16 -17 -6 0 2 67 9 79 8 12 11 11 23 -4 7
-11 13 -14 13 -8 0 17 -28 35 -42 27 -10 -6 -10 -4 1 9 7 9 17 14 22 11 16
-10 31 7 19 21 -9 10 -7 16 8 24 11 6 23 7 27 3 5 -4 5 -1 1 6 -5 8 -13 9 -25
2 -12 -6 -21 -6 -28 1 -6 6 -10 4 -10 -8 0 -10 7 -23 16 -30 13 -9 12 -11 -9
-10 -21 2 -25 7 -25 34 0 17 3 29 7 27 12 -7 10 10 -2 22 -8 8 -6 15 4 23 13
11 15 9 11 -9 -3 -17 -1 -19 9 -11 9 7 17 7 27 -2 7 -6 3 1 -11 16 -13 15 -29
26 -35 24 -5 -3 -10 8 -10 24 -1 16 3 29 8 29 4 0 6 4 2 9 -3 5 -1 12 4 15 5
4 13 1 17 -5 4 -7 3 -9 -4 -5 -6 3 -9 -1 -8 -11 2 -10 -2 -21 -8 -25 -6 -4 -3
-10 9 -14 11 -4 23 -12 27 -18 5 -8 8 -8 8 0 0 5 -6 19 -14 30 -11 14 -11 22
-3 32 13 16 -10 35 -32 27 -11 -5 -12 -3 -1 10 10 12 16 13 28 3 10 -9 13 -9
9 -1 -4 6 -1 14 5 16 7 3 0 4 -17 3 -28 -3 -30 0 -30 30 0 18 3 30 7 28 12 -7
10 10 -2 22 -8 8 -6 15 4 23 12 10 14 9 11 -6 -1 -10 2 -26 6 -35 6 -10 5 -19
-1 -23 -13 -8 -13 -25 1 -25 5 0 7 5 4 10 -3 6 -1 10 4 10 6 0 11 -5 11 -12 0
-6 3 -9 6 -6 3 4 -2 20 -10 37 -10 19 -12 32 -6 36 6 4 7 12 3 18 -12 19 -14
49 -3 42 5 -3 10 -1 10 5 0 7 -8 9 -19 5 -11 -3 -22 -1 -26 5 -3 5 -1 10 5 10
6 0 9 4 5 9 -3 5 -1 12 4 15 5 4 13 1 17 -5 5 -8 3 -9 -7 -4 -11 6 -12 5 -2
-5 17 -19 29 -4 13 15 -7 9 -20 13 -28 10 -12 -4 -13 -3 -2 10 7 8 16 12 21 9
17 -10 31 7 18 22 -9 11 -8 15 5 20 9 3 16 11 16 16 0 6 -6 5 -15 -2 -8 -7
-15 -9 -15 -4 0 4 -5 3 -12 -4 -9 -9 -8 -15 7 -26 19 -14 19 -14 -6 -13 -27 2
-34 26 -11 40 18 12 15 27 -5 20 -16 -5 -15 -4 1 9 13 10 15 17 8 22 -7 4 -12
2 -12 -5 0 -7 -3 -10 -6 -6 -3 3 1 20 10 37 14 30 14 31 -2 25 -13 -5 -14 -3
-5 6 17 17 35 2 23 -21 -13 -25 -13 -39 1 -20 9 12 10 11 4 -5 -3 -11 -3 -16
1 -12 4 4 13 2 21 -4 9 -9 13 -8 13 0 0 6 -5 11 -11 11 -6 0 -8 7 -5 16 3 8 2
12 -4 9 -6 -3 -10 -1 -10 6 0 6 8 9 19 6 15 -3 18 -1 14 11 -5 11 -2 14 10 9
9 -3 19 -1 23 5 5 7 2 8 -6 3 -9 -6 -10 -2 -5 16 7 22 7 22 -16 -4 -22 -24
-26 -25 -43 -12 -19 14 -17 16 22 18 24 2 33 19 19 37 -11 13 -10 13 6 1 14
-11 17 -11 17 0 0 11 2 11 10 -1 8 -13 11 -13 19 -1 7 11 11 10 20 -7 12 -23
15 -49 4 -38 -5 4 -8 12 -8 17 0 5 -3 9 -7 9 -5 0 -12 0 -18 0 -5 0 -10 -5
-10 -11 0 -5 4 -8 9 -5 5 4 11 2 13 -4 2 -6 13 -12 26 -15 12 -2 20 0 18 4
-10 16 -14 61 -5 56 5 -4 7 -11 4 -16 -4 -5 -1 -9 5 -9 6 0 9 -4 6 -9 -7 -11
13 -9 32 2 14 10 16 -5 2 -19 -6 -6 -5 -15 1 -24 9 -13 10 -13 6 1 -8 25 12
40 35 28 11 -6 22 -8 26 -5 3 3 0 6 -6 6 -7 0 -12 5 -12 11 0 5 5 7 10 4 6 -3
10 -1 10 4 0 14 -17 14 -25 1 -4 -6 -11 -8 -16 -5 -20 13 -50 14 -43 2 4 -7 3
-8 -1 -4 -15 13 -14 35 1 33 7 -1 17 -5 20 -9 10 -10 26 -9 20 1 -2 4 10 7 28
7 30 0 33 -2 30 -30 -1 -16 0 -24 3 -17 2 6 10 9 16 5 8 -4 8 -1 -1 9 -10 12
-9 18 3 28 13 11 15 10 10 -1 -8 -22 11 -45 27 -32 10 8 18 8 32 -3 11 -8 25
-14 30 -14 8 0 8 3 0 8 -6 4 -14 16 -18 27 -4 12 -10 15 -14 9 -4 -6 -15 -10
-25 -8 -10 1 -14 -2 -11 -8 4 -7 2 -8 -5 -4 -6 4 -9 12 -5 17 3 5 10 7 15 4 5
-4 9 -2 9 2 0 5 13 9 29 8 16 0 27 -5 24 -10 -2 -6 9 -22 24 -35 15 -14 22
-18 15 -9 -9 12 -9 18 0 27 9 9 6 10 -11 7 -19 -4 -21 -2 -10 11 8 10 15 12
23 4 12 -12 29 -14 22 -2 -2 4 10 7 27 7 27 0 32 -4 34 -25 1 -21 -1 -22 -10
-9 -7 9 -20 16 -30 16 -12 0 -14 -4 -8 -10 7 -7 7 -16 1 -28 -7 -12 -6 -20 2
-25 7 -4 10 -4 6 1 -4 4 -3 16 3 27 8 15 14 17 24 8 14 -12 31 3 21 19 -3 5 1
14 9 21 13 11 14 10 10 -2 -3 -8 1 -21 10 -28 19 -16 34 -4 15 13 -10 10 -11
9 -5 -2 5 -10 4 -12 -4 -7 -6 4 -9 12 -5 17 3 5 10 7 15 4 5 -4 9 -1 9 5 0 6
5 8 10 5 6 -4 8 -16 4 -27 -4 -15 -2 -19 7 -16 8 3 13 12 13 21 -1 9 4 18 12
21 8 3 11 0 8 -8 -6 -17 22 -41 31 -27 4 7 16 6 36 -4 17 -9 27 -21 23 -27 -4
-7 -3 -8 5 -4 6 4 9 11 7 15 -3 4 5 13 16 20 19 12 20 11 14 -6 -6 -17 -5 -17
8 0 14 18 32 24 21 7 -3 -5 -1 -10 5 -10 7 0 10 6 8 12 -5 14 -86 19 -94 6 -3
-4 -13 -4 -22 1 -9 4 -25 7 -35 6 -15 -3 -16 -1 -6 11 8 10 15 12 23 4 12 -12
30 -14 23 -2 -3 4 24 7 60 7 35 0 60 -1 54 -3 -6 -2 -9 -8 -6 -12 3 -5 13 -6
23 -3 15 6 16 5 2 -13 -9 -12 -4 -10 14 6 l28 25 -6 -25 c-6 -23 -6 -23 5 -5
6 11 19 26 27 33 14 11 14 12 -1 12 -9 0 -17 -6 -17 -12 0 -9 -4 -8 -10 2 -5
8 -10 10 -10 4 0 -15 -28 -14 -34 2 -3 8 2 10 16 6 13 -3 19 -1 15 5 -3 5 3
17 14 26 20 18 33 22 26 9 -3 -4 2 -13 10 -21 13 -12 14 -11 9 10 -7 23 -6 23
8 5 9 -11 16 -15 16 -9 0 7 -4 15 -10 18 -5 3 -8 16 -6 28 3 12 5 24 5 27 1 3
6 -2 12 -10 9 -13 10 -13 6 2 -3 9 -3 19 1 21 4 2 2 3 -4 1 -6 -1 -17 3 -23 9
-8 8 -9 4 -6 -12 3 -18 1 -20 -9 -12 -7 6 -17 7 -22 3 -4 -4 -2 1 5 10 7 9 10
22 6 27 -3 6 0 8 9 5 10 -4 13 0 11 13 -2 10 -4 20 -4 23 -1 3 -5 -1 -10 -8
-7 -11 -9 -11 -14 1 -3 7 -1 20 4 28 7 11 9 11 9 1 0 -7 5 -10 12 -6 6 4 8 3
4 -4 -3 -6 -2 -13 3 -16 16 -10 22 11 6 24 -7 6 -11 19 -8 28 6 15 5 16 -13 2
-18 -14 -18 -14 -5 2 7 10 18 15 25 11 7 -4 7 -1 -1 7 -10 11 -15 11 -30 -1
-16 -13 -17 -12 -5 3 8 9 11 21 8 26 -3 5 3 17 13 27 19 16 19 16 16 -2 -1
-10 -8 -17 -15 -15 -6 1 -9 -2 -5 -7 3 -6 13 -7 22 -4 11 4 14 3 9 -5 -4 -7
-2 -12 3 -12 15 0 9 -22 -9 -37 -13 -11 -12 -12 4 -6 13 4 17 3 12 -5 -3 -6
-2 -13 2 -16 5 -3 7 14 5 37 -2 23 -5 58 -6 77 -1 24 -7 35 -17 35 -8 0 -14
-5 -13 -11 1 -5 -8 -16 -20 -24 -20 -12 -21 -12 -9 3 8 9 10 22 6 28 -4 8 -3
9 4 5 7 -4 12 -2 12 3 0 6 -8 11 -17 11 -15 0 -14 2 2 14 11 8 30 12 42 10 13
-3 23 0 23 5 0 6 -9 8 -20 6 -14 -3 -20 2 -20 15 0 25 17 35 22 13 3 -15 5
-14 10 5 3 12 3 20 -2 17 -4 -3 -11 2 -14 11 -9 24 -7 28 7 15 10 -8 14 -7 14
4 0 8 -4 12 -9 9 -4 -3 -8 0 -8 5 0 6 -5 11 -11 11 -5 0 -7 -5 -3 -12 4 -6 3
-8 -3 -5 -5 3 -10 0 -10 -8 0 -8 4 -15 9 -15 4 0 8 -5 8 -11 0 -8 -4 -8 -13 0
-10 8 -17 7 -27 -2 -10 -10 -11 -9 -4 3 13 24 14 44 1 52 -7 5 -2 7 13 6 15
-2 25 2 25 10 0 8 9 21 20 29 16 12 16 14 3 10 -10 -3 -20 -2 -23 3 -3 5 0 10
7 13 7 2 5 3 -4 2 -23 -4 -34 13 -19 28 9 9 11 8 8 -3 -2 -8 -2 -12 0 -7 3 4
10 4 15 1 7 -5 8 -2 2 7 -14 24 -14 41 2 35 11 -4 12 -2 4 13 -7 15 -5 22 13
36 21 16 21 16 -5 1 -27 -16 -28 -15 -28 3 0 31 -22 71 -34 64 -6 -4 -6 0 1 9
7 8 9 19 5 23 -4 5 -1 5 5 1 7 -4 21 -2 30 4 14 8 14 10 3 9 -33 -3 -51 1 -45
11 4 6 11 7 17 4 7 -4 8 -2 4 5 -4 6 -11 9 -16 6 -5 -3 -11 3 -15 14 -6 20
-45 69 -45 57 0 -4 -9 -2 -20 4 -14 8 -153 11 -425 12 -223 0 -405 5 -405 9 0
5 5 9 11 9 5 0 8 4 4 9 -3 5 5 18 18 28 l24 18 -24 18 c-13 10 -29 15 -36 11
-8 -5 -8 -2 2 9 7 9 17 14 22 11 16 -10 31 7 19 21 -9 10 -7 16 8 24 11 6 23
7 27 3 5 -4 5 -1 1 6 -5 8 -13 9 -25 2 -12 -6 -21 -6 -28 1 -6 6 -10 4 -10 -8
0 -10 7 -23 16 -30 13 -9 12 -11 -9 -10 -21 2 -25 7 -25 34 0 17 3 29 7 27 12
-7 10 10 -2 22 -8 8 -6 15 4 23 13 11 15 9 11 -9 -3 -17 -1 -19 9 -11 9 7 17
7 27 -2 7 -6 3 1 -11 16 -13 15 -29 26 -35 24 -5 -3 -10 8 -10 24 -1 16 3 29
8 29 4 0 6 4 2 9 -3 5 -1 12 4 15 5 4 13 1 17 -5 4 -7 3 -9 -4 -5 -6 3 -9 -1
-8 -11 2 -10 -2 -21 -8 -25 -6 -4 -3 -10 9 -14 11 -4 23 -12 27 -18 5 -8 8 -8
8 0 0 5 -6 19 -14 30 -11 14 -11 22 -3 32 13 16 -10 35 -32 27 -11 -5 -12 -3
-1 10 10 12 16 13 28 3 10 -9 13 -9 9 -1 -4 6 -1 14 5 16 7 3 -1 4 -19 3 -29
-3 -31 -1 -22 15 5 11 12 19 15 19 3 0 2 -4 -1 -10 -3 -5 -1 -10 5 -10 7 0 10
6 7 13 -2 6 -10 12 -18 11 -9 -1 -14 10 -14 28 -1 15 3 28 8 28 4 0 6 4 2 9
-3 5 -1 12 4 15 5 4 13 1 17 -5 4 -7 3 -9 -4 -5 -6 3 -9 -1 -8 -11 2 -10 -2
-21 -8 -25 -6 -4 -3 -10 9 -14 11 -4 23 -12 27 -18 5 -8 8 -8 8 0 0 5 -6 19
-14 30 -11 14 -11 22 -3 32 13 16 -10 35 -32 27 -11 -5 -12 -3 -1 10 10 12 16
13 28 3 10 -9 13 -9 9 -1 -4 6 -1 14 5 16 7 3 0 4 -17 3 -28 -3 -30 0 -30 30
0 18 3 30 7 28 12 -7 10 10 -2 22 -8 8 -6 15 4 23 11 9 16 9 22 0 4 -7 3 -9
-4 -5 -11 7 -9 -24 3 -43 3 -5 1 -12 -5 -16 -13 -8 -13 -25 1 -25 5 0 7 5 4
10 -3 6 -1 10 4 10 6 0 11 -5 11 -12 0 -6 3 -9 6 -6 3 4 -1 19 -10 36 -8 16
-12 32 -9 36 11 10 12 37 2 30 -5 -3 -9 0 -9 7 0 8 -4 8 -13 1 -10 -9 -13 -3
-13 28 -1 34 1 37 12 22 7 -9 8 -18 3 -20 -5 -2 -9 -9 -9 -14 0 -6 3 -9 6 -5
3 3 17 2 31 -4 16 -6 22 -6 18 1 -3 6 -12 10 -18 10 -7 0 -13 10 -14 23 -2 21
-1 21 13 3 15 -21 20 -10 5 13 -5 7 -14 10 -20 7 -6 -4 -11 0 -11 9 0 9 -3 14
-8 12 -4 -3 -7 8 -7 23 -1 16 3 26 7 24 4 -3 8 0 8 5 0 6 -4 11 -10 11 -8 0
-23 38 -25 63 0 4 -3 6 -6 5 -4 -2 -16 5 -27 16 -16 14 -39 19 -100 20 -43 2
-84 6 -90 10 -7 4 -12 4 -12 -1 0 -10 -116 -11 -125 -1 -4 4 -15 4 -24 -1 -20
-10 -62 -9 -78 2 -7 5 -13 4 -13 0 0 -11 -50 -10 -67 0 -6 4 -14 4 -17 -1 -5
-9 -127 -9 -142 1 -6 3 -14 3 -18 0z m773 -836 c8 -11 5 -19 -13 -35 l-24 -21
2 23 c2 21 13 46 20 46 2 0 9 -6 15 -13z m901 -288 c0 -5 -4 -9 -8 -9 -5 0 -9
7 -9 15 0 8 4 12 9 9 4 -3 8 -9 8 -15z m-7 -36 c-4 -10 -2 -14 5 -9 6 3 13 2
16 -3 4 -5 2 -12 -4 -16 -6 -4 -8 -10 -5 -15 3 -4 -2 -10 -10 -14 -8 -3 -17 0
-21 6 -4 7 -3 8 5 4 8 -5 10 0 7 20 -3 15 -3 31 0 36 9 14 14 9 7 -9z m12
-116 c13 -10 15 -16 6 -21 -6 -4 -8 -13 -4 -19 4 -7 0 -6 -10 2 -9 7 -14 18
-11 23 4 6 0 14 -7 19 -8 5 -9 9 -3 9 5 0 18 -6 29 -13z m0 -127 c-3 -5 -11
-10 -16 -10 -6 0 -7 5 -4 10 3 6 11 10 16 10 6 0 7 -4 4 -10z m25 -100 c0 -5
-2 -10 -4 -10 -3 0 -8 5 -11 10 -3 6 -1 10 4 10 6 0 11 -4 11 -10z m-26 -261
c-3 -5 -13 -9 -22 -8 -11 0 -12 2 -4 6 6 2 10 9 7 14 -4 5 1 6 9 3 9 -3 13
-10 10 -15z m-2457 -85 c-3 -3 -12 -4 -19 -1 -8 3 -5 6 6 6 11 1 17 -2 13 -5z
m257 -9 c-4 -8 -11 -12 -16 -9 -6 4 -5 10 3 15 19 12 19 11 13 -6z m2026 -19
c0 -3 -4 -8 -10 -11 -5 -3 -10 -1 -10 4 0 6 5 11 10 11 6 0 10 -2 10 -4z
m-746 -295 c3 -5 -1 -11 -9 -14 -9 -4 -12 -1 -8 9 6 16 10 17 17 5z m-697
-588 c-4 -3 -2 -12 4 -19 8 -10 6 -12 -10 -9 -12 2 -25 -3 -30 -13 -7 -13 -9
-11 -8 10 1 15 7 24 13 21 7 -2 15 0 19 6 3 6 9 11 12 11 4 0 3 -3 0 -7z m188
-2 c3 -5 2 -12 -3 -15 -5 -3 -9 1 -9 9 0 17 3 19 12 6z m-33 -24 c-7 -8 -8
-18 -4 -22 4 -5 1 -5 -6 -1 -9 5 -9 12 -1 27 6 12 13 18 16 15 3 -3 1 -12 -5
-19z m328 -17 c0 -5 -2 -10 -4 -10 -3 0 -8 5 -11 10 -3 6 -1 10 4 10 6 0 11
-4 11 -10z"/>
<path d="M1975 2041 c-3 -5 -1 -12 5 -16 5 -3 10 1 10 9 0 18 -6 21 -15 7z"/>
<path d="M1991 2742 c-1 -7 -6 -10 -12 -6 -8 4 -8 0 0 -15 7 -11 17 -21 24
-20 9 0 9 2 0 6 -7 2 -13 9 -13 14 0 6 8 6 19 -1 15 -7 19 -7 17 5 -1 8 -6 18
-11 22 -4 4 -5 2 -1 -4 4 -7 3 -13 -3 -13 -5 0 -12 6 -14 13 -4 9 -6 9 -6 -1z"/>
<path d="M2014 2579 c-3 -6 -3 -13 0 -16 3 -4 6 -1 6 5 0 6 7 9 15 6 8 -4 15
-4 15 -1 0 11 -30 16 -36 6z"/>
<path d="M2020 2466 c0 -2 8 -10 18 -17 15 -13 16 -12 3 4 -13 16 -21 21 -21
13z"/>
<path d="M2016 2421 c9 -9 34 -9 34 -1 0 5 -9 8 -20 7 -10 -1 -17 -3 -14 -6z"/>
<path d="M2020 2306 c0 -2 8 -10 18 -17 15 -13 16 -12 3 4 -13 16 -21 21 -21
13z"/>
<path d="M2016 2261 c9 -9 34 -9 34 -1 0 5 -9 8 -20 7 -10 -1 -17 -3 -14 -6z"/>
<path d="M1990 2160 c0 -5 5 -10 10 -10 6 0 10 5 10 10 0 6 -4 10 -10 10 -5 0
-10 -4 -10 -10z"/>
<path d="M2016 2058 c3 -5 10 -6 15 -3 13 9 11 12 -6 12 -8 0 -12 -4 -9 -9z"/>
<path d="M2010 1999 c0 -5 -4 -8 -8 -5 -5 3 -9 -1 -9 -8 0 -20 30 -13 33 7 1
9 -2 17 -7 17 -5 0 -9 -5 -9 -11z"/>
<path d="M2916 1873 c-6 -14 -5 -15 5 -6 7 7 10 15 7 18 -3 3 -9 -2 -12 -12z"/>
<path d="M2896 1809 c3 -5 12 -21 20 -37 l14 -27 -3 34 c-2 24 -8 35 -20 37
-9 1 -15 -2 -11 -7z"/>
<path d="M2936 1658 c3 -5 10 -6 15 -3 13 9 11 12 -6 12 -8 0 -12 -4 -9 -9z"/>
<path d="M2934 1579 c-3 -6 -1 -16 5 -22 9 -9 11 -8 5 6 -5 13 -2 16 10 11 9
-3 16 -4 16 -1 0 11 -30 16 -36 6z"/>
<path d="M2900 1419 c0 -5 9 -9 20 -9 11 0 20 2 20 4 0 2 -9 6 -20 9 -11 3
-20 1 -20 -4z"/>
<path d="M2930 1217 c-18 -14 -24 -37 -10 -37 6 0 10 6 10 14 0 8 6 16 13 19
6 2 10 7 7 10 -3 3 -12 0 -20 -6z"/>
<path d="M2930 1111 c0 -6 4 -13 10 -16 6 -3 7 1 4 9 -7 18 -14 21 -14 7z"/>
<path d="M2861 1071 c-7 -5 -9 -11 -4 -14 5 -3 15 -2 22 2 7 5 9 11 4 14 -5 3
-15 2 -22 -2z"/>
<path d="M2915 1049 c-4 -6 -5 -12 -2 -15 2 -3 7 2 10 11 7 17 1 20 -8 4z"/>
<path d="M215 1019 c-3 -4 3 -8 12 -8 10 0 27 -1 38 -3 11 -2 21 1 23 6 3 12
-66 17 -73 5z"/>
<path d="M474 1000 c1 -16 5 -32 9 -36 4 -5 5 0 1 11 -7 18 -6 19 12 5 17 -14
18 -14 6 2 -8 10 -9 19 -3 22 5 3 11 0 14 -6 2 -7 8 -9 13 -5 5 5 0 14 -11 20
-33 19 -41 16 -41 -13z"/>
<path d="M982 1010 c14 -22 40 -36 32 -17 -2 7 -13 18 -24 25 -19 11 -19 11
-8 -8z"/>
<path d="M439 1008 c-6 -25 -6 -38 1 -38 12 0 20 29 10 35 -6 4 -10 5 -11 3z"/>
<path d="M2430 1000 c0 -5 5 -10 10 -10 6 0 10 5 10 10 0 6 -4 10 -10 10 -5 0
-10 -4 -10 -10z"/>
<path d="M270 986 c0 -2 9 -6 20 -9 11 -3 18 -1 14 4 -5 9 -34 13 -34 5z"/>
<path d="M613 975 c0 -8 4 -12 9 -9 5 3 6 10 3 15 -9 13 -12 11 -12 -6z"/>
<path d="M736 982 c-2 -4 0 -14 6 -22 8 -12 9 -12 5 2 -3 9 -1 19 6 22 9 3 9
5 0 5 -6 1 -14 -3 -17 -7z"/>
<path d="M893 970 c-1 -11 2 -20 7 -20 4 0 7 7 6 15 -3 23 -12 26 -13 5z"/>
<path d="M2006 978 c3 -5 10 -6 15 -3 13 9 11 12 -6 12 -8 0 -12 -4 -9 -9z"/>
<path d="M2333 970 c-1 -11 2 -20 7 -20 4 0 7 7 6 15 -3 23 -12 26 -13 5z"/>
<path d="M2533 975 c0 -8 4 -12 9 -9 5 3 6 10 3 15 -9 13 -12 11 -12 -6z"/>
<path d="M2656 982 c-2 -4 0 -14 6 -22 8 -12 9 -12 5 2 -3 9 -1 19 6 22 9 3 9
5 0 5 -6 1 -14 -3 -17 -7z"/>
<path d="M650 976 c0 -2 8 -10 18 -17 15 -13 16 -12 3 4 -13 16 -21 21 -21 13z"/>
<path d="M850 976 c0 -2 8 -10 18 -17 15 -13 16 -12 3 4 -13 16 -21 21 -21 13z"/>
<path d="M2290 976 c0 -2 8 -10 18 -17 15 -13 16 -12 3 4 -13 16 -21 21 -21
13z"/>
<path d="M2570 976 c0 -2 8 -10 18 -17 15 -13 16 -12 3 4 -13 16 -21 21 -21
13z"/>
<path d="M1995 880 c3 -5 8 -10 11 -10 2 0 4 5 4 10 0 6 -5 10 -11 10 -5 0 -7
-4 -4 -10z"/>
<path d="M2016 778 c3 -5 10 -6 15 -3 13 9 11 12 -6 12 -8 0 -12 -4 -9 -9z"/>
<path d="M2020 746 c0 -2 8 -10 18 -17 15 -13 16 -12 3 4 -13 16 -21 21 -21
13z"/>
<path d="M2014 659 c-3 -6 -3 -13 0 -16 3 -4 6 -1 6 5 0 6 7 9 15 6 8 -4 15
-4 15 -1 0 11 -30 16 -36 6z"/>
<path d="M2020 546 c0 -2 8 -10 18 -17 15 -13 16 -12 3 4 -13 16 -21 21 -21
13z"/>
<path d="M2016 501 c9 -9 34 -9 34 -1 0 5 -9 8 -20 7 -10 -1 -17 -3 -14 -6z"/>
<path d="M1990 400 c0 -5 5 -10 10 -10 6 0 10 5 10 10 0 6 -4 10 -10 10 -5 0
-10 -4 -10 -10z"/>
<path d="M2016 298 c3 -5 10 -6 15 -3 13 9 11 12 -6 12 -8 0 -12 -4 -9 -9z"/>
<path d="M1975 281 c-3 -5 -1 -12 5 -16 5 -3 10 1 10 9 0 18 -6 21 -15 7z"/>
<path d="M1956 181 c-4 -6 -1 -11 6 -11 9 0 9 -3 -2 -10 -10 -6 -11 -10 -2
-10 6 0 12 -5 12 -11 0 -5 -4 -8 -9 -4 -5 3 -12 1 -16 -4 -3 -6 -12 -8 -20 -4
-8 3 -16 0 -16 -6 -3 -26 -4 -30 -11 -37 -5 -4 -8 -2 -8 5 0 8 -7 10 -21 6
-15 -5 -19 -4 -14 5 6 9 3 9 -14 1 -11 -7 -21 -16 -21 -21 0 -14 34 -12 48 2
9 9 13 7 18 -6 6 -16 7 -16 19 0 12 17 40 11 30 -6 -3 -5 -1 -11 4 -14 11 -7
9 13 -3 32 -4 7 -2 19 5 28 12 14 14 14 26 -2 8 -10 13 -13 13 -5 0 7 5 9 13
5 9 -6 9 -5 0 7 -12 15 -3 42 13 39 5 -1 10 4 12 12 2 8 1 9 -5 3 -11 -15 -32
-13 -42 4 -6 9 -11 10 -15 2z"/>
<path d="M1395 111 c-3 -5 -2 -12 3 -15 5 -3 9 1 9 9 0 17 -3 19 -12 6z"/>
<path d="M1177 99 c7 -9 9 -19 5 -24 -4 -4 3 -2 16 4 12 6 22 14 22 17 0 3 -5
2 -10 -1 -6 -4 -19 -1 -28 7 -15 11 -15 11 -5 -3z"/>
<path d="M1666 94 c-3 -8 1 -22 9 -30 8 -9 15 -11 15 -5 0 5 -5 13 -11 17 -8
5 -8 9 1 14 8 5 8 10 2 14 -5 3 -13 -1 -16 -10z"/>
<path d="M1154 75 c3 -23 12 -26 13 -5 1 11 -2 20 -7 20 -4 0 -7 -7 -6 -15z"/>
<path d="M1473 65 c0 -8 4 -15 9 -15 4 0 8 4 8 9 0 6 -4 12 -8 15 -5 3 -9 -1
-9 -9z"/>
<path d="M1200 66 c0 -2 7 -7 16 -10 8 -3 12 -2 9 4 -6 10 -25 14 -25 6z"/>
<path d="M1630 60 c0 -5 5 -10 10 -10 6 0 10 5 10 10 0 6 -4 10 -10 10 -5 0
-10 -4 -10 -10z"/>
<path d="M1730 56 c0 -2 8 -10 18 -17 15 -13 16 -12 3 4 -13 16 -21 21 -21 13z"/>
<path d="M1266 42 c-3 -5 1 -9 9 -9 8 0 15 4 15 9 0 10 -17 10 -24 0z"/>
</g>
</svg>
